<?xml version="1.0" encoding="UTF-8"?>
<svg id="Layer_1" data-name="Layer 1" xmlns="http://www.w3.org/2000/svg" viewBox="0 0 975.71 194.06">
  <defs>
    <style>
      .cls-1 {
        fill: #231f20;
      }
    </style>
  </defs>
  <path class="cls-1" d="m295.78,11.75c-.94-2.36-2.33-4.4-4.12-6.11-1.78-1.69-3.87-3.06-6.2-4.08-2.35-1.04-4.98-1.56-7.77-1.56s-5.43.52-7.77,1.56c-2.34,1.03-4.39,2.4-6.08,4.09-1.7,1.7-3.08,3.74-4.09,6.08-1.04,2.35-1.56,4.87-1.56,7.5,0,2.82.53,5.43,1.56,7.77,1.01,2.32,2.39,4.41,4.08,6.2,1.69,1.79,3.75,3.18,6.1,4.11,2.33.94,4.94,1.41,7.75,1.41s5.42-.48,7.76-1.41c2.34-.93,4.44-2.32,6.22-4.11,1.79-1.78,3.17-3.88,4.11-6.23.93-2.34,1.41-4.95,1.41-7.75,0-2.62-.48-5.13-1.41-7.48"/>
  <rect class="cls-1" x="261.21" y="61.21" width="33.31" height="129.84"/>
  <g>
    <path class="cls-1" d="m419.68,120.96h0c-5.57-2.67-11.8-4.66-18.54-5.95-6.88-1.31-13.52-2.51-19.73-3.57-4.84-.91-9.03-1.83-12.46-2.72-3.44-.9-6.29-1.91-8.45-2.98-2.13-1.06-3.73-2.25-4.77-3.55-1.04-1.28-1.54-2.74-1.54-4.47,0-2.06.66-3.88,1.98-5.42,1.34-1.58,3.06-2.91,5.09-3.97,2.04-1.06,4.42-1.92,7.07-2.55,5.89-1.38,14.17-1.2,19.54.27,2.92.8,5.66,1.97,8.12,3.5,2.42,1.5,4.44,3.39,6,5.61,1.55,2.21,2.53,4.76,2.92,7.59l.07.5h31.46v-.58c-.22-7.39-2.06-13.89-5.52-19.35-3.44-5.43-7.85-10.02-13.12-13.62-5.25-3.59-11.4-6.33-18.27-8.18-13.54-3.62-28.3-3.58-42.19-.42-6.87,1.57-13.12,4.04-18.57,7.35-5.47,3.32-9.94,7.64-13.3,12.81-3.35,5.2-5.05,11.48-5.05,18.68s3.01,11.13,6.17,15.5c3.15,4.35,7.22,7.92,12.09,10.59,4.86,2.68,10.34,4.68,16.3,5.97,5.81,1.26,10.59,2.22,16.1,3.38,5.03,1.06,10.89,2.1,14.94,2.91,4.05.81,7.3,1.43,10.28,2.61,2.9,1.14,5.15,2.61,6.68,4.36,1.52,1.72,2.7,3.95,2.28,6.51-.34,2.07-.4,3.69-2.69,6.97-1.27,1.82-3.82,3.66-5.93,4.8-2.14,1.16-4.68,2.06-7.52,2.68-6.01,1.33-15.12,1.04-21.26-.5-3.24-.8-6.21-2.07-8.84-3.76-2.62-1.69-4.85-3.85-6.61-6.42-1.75-2.58-2.84-5.68-3.23-9.24l-.05-.5-31.42.22v.57c0,7.92,1.69,14.93,5.04,20.84,3.33,5.9,7.84,10.91,13.41,14.87,5.55,3.95,11.96,6.94,19.03,8.87,7.06,1.93,14.51,2.91,22.16,2.91s15.24-.88,22.6-2.63c7.37-1.75,13.98-4.5,19.63-8.19,5.66-3.69,10.38-8.32,14.02-13.75,3.65-5.45,5.51-11.88,5.51-19.09,0-7.77-1.86-14.02-5.54-18.58-3.66-4.52-8.34-8.18-13.92-10.87"/>
    <path class="cls-1" d="m561.7,141.69c-2.87,7.18-7.25,12.87-12.97,16.91-5.73,4.03-12.46,6.07-19.99,6.07-5.03,0-9.85-1-14.32-2.97-4.48-1.97-8.38-4.7-11.61-8.11-3.23-3.4-5.83-7.5-7.71-12.17-1.88-4.67-2.84-9.76-2.84-15.16s.96-10.49,2.84-15.16c1.88-4.67,4.48-8.82,7.71-12.32,3.22-3.49,7.09-6.26,11.49-8.24,4.39-1.96,9.25-2.96,14.45-2.96,7.53,0,14.31,2,20.13,5.94,5.83,3.95,10.15,9.31,12.83,15.94l.14.36h32.04l-.09-.64c-1.11-7.73-3.77-14.78-7.91-20.95-4.13-6.14-9.2-11.51-15.09-15.93-5.87-4.39-12.53-7.85-19.79-10.23-7.26-2.38-14.75-3.59-22.26-3.59-9.72,0-18.89,1.72-27.24,5.11-8.36,3.41-15.67,8.21-21.72,14.26-6.06,6.06-10.91,13.28-14.39,21.45-3.5,8.18-5.27,17.17-5.27,26.71s1.77,18.81,5.27,26.97c3.48,8.17,8.32,15.38,14.39,21.45,6.06,6.06,13.38,10.86,21.72,14.26,8.36,3.4,17.53,5.12,27.24,5.12,8.07,0,15.84-1.26,23.1-3.74,7.25-2.47,13.82-5.97,19.51-10.38,5.7-4.41,10.59-9.91,14.54-16.34,3.96-6.43,6.8-13.6,8.44-21.3l.15-.69h-32.64l-.14.36Z"/>
    <path class="cls-1" d="m723.02,76.56c-4.48-5.41-10.17-9.76-16.91-12.97-7.19-3.4-16.23-5.13-26.87-5.13-8.99,0-17.51,1.63-25.32,4.84-7.81,3.22-14.67,7.89-20.36,13.86-5.7,5.97-10.21,13.15-13.42,21.32-3.22,8.16-4.85,17.24-4.85,26.96s1.63,19.17,4.84,27.52c3.21,8.35,7.74,15.62,13.43,21.59,5.69,5.98,12.54,10.73,20.35,14.12,7.8,3.4,16.33,5.13,25.33,5.13,10.65,0,19.68-1.77,26.87-5.27,6.76-3.29,12.46-7.63,16.95-12.91l2.36,15.43h29.31V61.2h-28.3l-3.4,15.36Zm-38.56,88.39c-5.58,0-10.67-1.04-15.14-3.11-4.49-2.06-8.39-4.87-11.62-8.37-3.24-3.5-5.78-7.68-7.58-12.44-1.79-4.76-2.7-9.92-2.7-15.31s.91-10.5,2.7-15.17c1.79-4.66,4.34-8.76,7.57-12.17,3.22-3.4,7.14-6.13,11.63-8.12,4.48-1.96,9.57-2.96,15.14-2.96s10.74,1,15.42,2.97c4.66,1.98,8.71,4.71,12.03,8.12,3.31,3.4,5.9,7.49,7.7,12.16,1.79,4.68,2.7,9.78,2.7,15.17s-.91,10.54-2.7,15.31c-1.8,4.76-4.39,8.93-7.7,12.43-3.33,3.5-7.38,6.33-12.03,8.38-4.67,2.07-9.86,3.11-15.42,3.11"/>
  </g>
  <rect class="cls-1" x="784.72" y="1.1" width="33.54" height="189.94"/>
  <g>
    <path class="cls-1" d="m971.01,97.37c-3.13-8-7.66-14.99-13.44-20.77-5.79-5.79-12.83-10.31-20.92-13.44-8.09-3.12-17.21-4.7-27.1-4.7-10.83,0-20.5,1.91-28.78,5.68-8.26,3.77-15.29,8.84-20.9,15.1-5.61,6.25-9.94,13.51-12.87,21.58-2.94,8.07-4.43,16.63-4.43,25.45s1.45,17.1,4.29,25.15c2.85,8.09,7.09,15.35,12.6,21.6,5.52,6.26,12.51,11.33,20.77,15.1,8.28,3.77,17.87,5.68,28.5,5.68,15.78,0,29.6-3.95,41.07-11.76,11.49-7.81,17.96-18.77,22.38-32.54l.24-.74-33.21.28-.17.28c-3.03,5.19-5.49,9.18-10.41,11.86-4.93,2.69-10.89,4.05-17.71,4.05-6.12,0-11.49-1-15.97-2.97-4.47-1.97-8.28-4.73-11.33-8.23-3.05-3.5-5.36-7.72-6.88-12.56-.66-2.09-1.19-4.34-1.57-6.69h99.59l.1-.44c.37-1.65.59-3.35.69-5.03.1-1.69.14-3.54.14-5.52,0-9.54-1.58-18.43-4.7-26.42m-76.99-8.34c4.39-2.06,9.52-3.11,15.26-3.11,3.94,0,7.9.64,11.77,1.9,3.85,1.26,7.4,3.08,10.54,5.4,3.12,2.32,5.75,5.22,7.82,8.62,1.95,3.24,3.23,6.92,3.82,10.95h-67.33c.23-.98.46-1.87.72-2.7,1.44-4.76,3.61-8.99,6.49-12.58,2.86-3.57,6.53-6.43,10.92-8.48"/>
    <path class="cls-1" d="m167.69,61.56c-27.57,0-47.34,12.01-58.94,38.75-2.34,5.03-3.89,9.86-5.55,15.35-.99,3.13-1.84,5.94-2.58,8.35-.17.57-.32,1.08-.49,1.61-.62,1.97-1.3,4.03-2.08,6.33-4.62,13.53-11.56,26.05-30.83,26.05-25.21,0-34.58-20.95-34.58-38.89v-54.48H.02v54.48c-.85,40.82,26.68,70.35,65.62,70.35,27.56,0,48.92-12.01,60.51-38.74,2.34-5.04,3.89-9.87,5.56-15.35.99-3.15,1.84-5.94,2.58-8.36.17-.57.32-1.08.48-1.61.63-1.96,1.3-4.03,2.08-6.33,4.62-13.52,11.56-26.05,30.83-26.05,25.2,0,34.14,20.95,34.14,38.88v59.13h33.05v-59.13c1.33-42.36-28.26-70.35-67.19-70.35"/>
  </g>
</svg>